<mxfile host="app.diagrams.net" modified="2022-10-06T03:28:10.066Z" agent="5.0 (Windows NT 10.0; Win64; x64) AppleWebKit/537.36 (KHTML, like Gecko) Chrome/105.0.0.0 Safari/537.36" etag="g7tFvYDI8wO819NCZ_ZN" version="20.3.7" type="github">
  <diagram id="R2lEEEUBdFMjLlhIrx00" name="Page-1">
    <mxGraphModel dx="2071" dy="672" grid="1" gridSize="10" guides="1" tooltips="1" connect="1" arrows="1" fold="1" page="1" pageScale="1" pageWidth="850" pageHeight="1100" math="0" shadow="0" extFonts="Permanent Marker^https://fonts.googleapis.com/css?family=Permanent+Marker">
      <root>
        <mxCell id="0" />
        <mxCell id="1" parent="0" />
        <mxCell id="RLFhRpxJglFCo0WGlOcY-2" value="News_Catalog" style="rounded=0;whiteSpace=wrap;html=1;fontSize=16;fontStyle=1" vertex="1" parent="1">
          <mxGeometry x="190" y="230" width="260" height="100" as="geometry" />
        </mxCell>
        <mxCell id="RLFhRpxJglFCo0WGlOcY-5" style="edgeStyle=orthogonalEdgeStyle;rounded=0;orthogonalLoop=1;jettySize=auto;html=1;entryX=0.25;entryY=0;entryDx=0;entryDy=0;fontSize=16;endArrow=none;endFill=0;" edge="1" parent="1" source="RLFhRpxJglFCo0WGlOcY-4" target="RLFhRpxJglFCo0WGlOcY-2">
          <mxGeometry relative="1" as="geometry" />
        </mxCell>
        <mxCell id="RLFhRpxJglFCo0WGlOcY-4" value="newsID&lt;br&gt;&amp;lt;ID&amp;gt; PK" style="ellipse;whiteSpace=wrap;html=1;fontStyle=5" vertex="1" parent="1">
          <mxGeometry x="-120" y="130" width="120" height="80" as="geometry" />
        </mxCell>
        <mxCell id="RLFhRpxJglFCo0WGlOcY-7" style="edgeStyle=orthogonalEdgeStyle;rounded=0;orthogonalLoop=1;jettySize=auto;html=1;entryX=0;entryY=0.5;entryDx=0;entryDy=0;fontSize=16;endArrow=none;endFill=0;" edge="1" parent="1" source="RLFhRpxJglFCo0WGlOcY-6" target="RLFhRpxJglFCo0WGlOcY-2">
          <mxGeometry relative="1" as="geometry" />
        </mxCell>
        <mxCell id="RLFhRpxJglFCo0WGlOcY-6" value="datetime&lt;br&gt;&amp;lt;datetime&amp;gt;" style="ellipse;whiteSpace=wrap;html=1;fontStyle=0" vertex="1" parent="1">
          <mxGeometry x="-120" y="310" width="120" height="80" as="geometry" />
        </mxCell>
        <mxCell id="RLFhRpxJglFCo0WGlOcY-11" style="edgeStyle=orthogonalEdgeStyle;rounded=0;orthogonalLoop=1;jettySize=auto;html=1;entryX=0.5;entryY=0;entryDx=0;entryDy=0;fontSize=16;endArrow=none;endFill=0;" edge="1" parent="1" source="RLFhRpxJglFCo0WGlOcY-10" target="RLFhRpxJglFCo0WGlOcY-2">
          <mxGeometry relative="1" as="geometry" />
        </mxCell>
        <mxCell id="RLFhRpxJglFCo0WGlOcY-10" value="category&lt;br&gt;&amp;lt;ID&amp;gt; FK" style="ellipse;whiteSpace=wrap;html=1;fontStyle=0" vertex="1" parent="1">
          <mxGeometry x="30" y="20" width="120" height="80" as="geometry" />
        </mxCell>
        <mxCell id="RLFhRpxJglFCo0WGlOcY-17" style="edgeStyle=orthogonalEdgeStyle;rounded=0;orthogonalLoop=1;jettySize=auto;html=1;entryX=0.5;entryY=1;entryDx=0;entryDy=0;fontSize=16;endArrow=none;endFill=0;" edge="1" parent="1" source="RLFhRpxJglFCo0WGlOcY-16" target="RLFhRpxJglFCo0WGlOcY-2">
          <mxGeometry relative="1" as="geometry">
            <Array as="points">
              <mxPoint x="290" y="510" />
              <mxPoint x="290" y="330" />
            </Array>
          </mxGeometry>
        </mxCell>
        <mxCell id="RLFhRpxJglFCo0WGlOcY-16" value="content&lt;br&gt;&amp;lt;varchar&amp;gt;" style="ellipse;whiteSpace=wrap;html=1;fontStyle=0" vertex="1" parent="1">
          <mxGeometry x="30" y="470" width="120" height="80" as="geometry" />
        </mxCell>
        <mxCell id="RLFhRpxJglFCo0WGlOcY-21" style="edgeStyle=orthogonalEdgeStyle;rounded=0;orthogonalLoop=1;jettySize=auto;html=1;entryX=0.75;entryY=1;entryDx=0;entryDy=0;fontSize=16;endArrow=none;endFill=0;" edge="1" parent="1" source="RLFhRpxJglFCo0WGlOcY-19" target="RLFhRpxJglFCo0WGlOcY-2">
          <mxGeometry relative="1" as="geometry" />
        </mxCell>
        <mxCell id="RLFhRpxJglFCo0WGlOcY-19" value="title&lt;br&gt;&amp;lt;varchar&amp;gt;" style="ellipse;whiteSpace=wrap;html=1;fontStyle=0" vertex="1" parent="1">
          <mxGeometry x="365" y="470" width="120" height="80" as="geometry" />
        </mxCell>
        <mxCell id="RLFhRpxJglFCo0WGlOcY-24" style="edgeStyle=orthogonalEdgeStyle;rounded=0;orthogonalLoop=1;jettySize=auto;html=1;entryX=0.75;entryY=0;entryDx=0;entryDy=0;fontSize=16;endArrow=none;endFill=0;" edge="1" parent="1" source="RLFhRpxJglFCo0WGlOcY-23" target="RLFhRpxJglFCo0WGlOcY-2">
          <mxGeometry relative="1" as="geometry" />
        </mxCell>
        <mxCell id="RLFhRpxJglFCo0WGlOcY-23" value="URL&lt;br&gt;&amp;lt;varchar&amp;gt;" style="ellipse;whiteSpace=wrap;html=1;fontStyle=0" vertex="1" parent="1">
          <mxGeometry x="380" y="20" width="120" height="80" as="geometry" />
        </mxCell>
      </root>
    </mxGraphModel>
  </diagram>
</mxfile>
